# xmcd
#
# Track frame offsets: 
#        225
#        9727
#        25874
#        43001
#        59108
#        77940
#        97290
#        115766
#        128141
#        142468
#        160645
#        177848
#        193666
#
# Disc length: 4440 seconds
#
# Revision: 0
# Processed by: cddbd v1.4PL0 Copyright (c) Steve Scherf et al.
# Submitted via: ExactAudioCopy v0.90b3
#
DISCID=be11550d
DTITLE=Andre Williams - The Black Godfather
DYEAR=2000
DGENRE=Alternative
TTITLE0=Intro
TTITLE1=The Black Godfather
TTITLE2=Whip the Booty
TTITLE3=Whatcha Gonna Do
TTITLE4=Sling That Thing
TTITLE5=The Dealer, the Peeler and the Stealer
TTITLE6=Freak Blues
TTITLE7=You Got It and I Want It
TTITLE8=Nasty Women
TTITLE9=I Hate Cha
TTITLE10=Montana Slim
TTITLE11=I Wanna Go Back to Mexico
TTITLE12=Can't Find My Mind
EXTD=Featuring:\nThe Jon Spencer Blues Explosion\nThe Countdowns\nComp
EXTD=ulsive Gamblers\nThe Dirtbombs\nCheater Slicks\n
EXTT0=
EXTT1=
EXTT2=
EXTT3=
EXTT4=
EXTT5=
EXTT6=
EXTT7=
EXTT8=
EXTT9=
EXTT10=
EXTT11=
EXTT12=
PLAYORDER=
